<svg width="32" height="32" viewBox="0 0 240 240" fill="none" xmlns="http://www.w3.org/2000/svg">
<path fill-rule="evenodd" clip-rule="evenodd" d="M90.0576 186.377L92.7297 185.842L94.6566 183.915L168.84 109.732L175.204 103.368L190.116 88.4558C197.145 81.4264 197.145 70.0294 190.116 63L177.388 50.2721C170.359 43.2426 158.962 43.2426 151.932 50.2721L137.02 65.184L130.656 71.5479L56.4728 145.731L54.5459 147.658L54.0115 150.33L47.6476 182.15L45 195.388L58.2378 192.74L90.0576 186.377ZM137.02 77.9119L62.8368 152.095L58.3849 174.355L56.4728 183.915L66.0335 182.003L88.2926 177.551L162.476 103.368L137.02 77.9119ZM143.384 71.5479L168.84 97.0038L183.752 82.0919C187.267 78.5772 187.267 72.8787 183.752 69.364L171.024 56.636C167.509 53.1213 161.811 53.1213 158.296 56.636L143.384 71.5479Z" fill="black" fill-opacity="0.8"/>
</svg>
